<svg width="134" height="53" viewBox="0 0 134 53" fill="none" xmlns="http://www.w3.org/2000/svg">
<path fill-rule="evenodd" clip-rule="evenodd" d="M35.5421 49.6006H0.125732V51.4568H35.5421V49.6006ZM0.125732 12.6245H26.2972V21.8694H0.125732V12.6245ZM9.37065 31.1162H35.5421V40.3629H9.37065V31.1162ZM45.4375 21.67V27.4865H48.176C48.963 27.4865 49.6817 27.163 50.1992 26.6455C50.7167 26.128 51.0402 25.4093 51.0402 24.6241V24.527C51.0402 23.74 50.7167 23.023 50.1992 22.5055C49.6817 21.988 48.9702 21.67 48.1832 21.67H45.4375ZM83.0156 8.24914C83.0156 7.57351 82.8916 6.93203 82.6418 6.31749C82.3939 5.71015 82.0417 5.1657 81.5799 4.68953C81.1235 4.22054 80.606 3.86117 80.013 3.60601C79.42 3.35085 78.7929 3.22687 78.1371 3.22687C77.4812 3.22687 76.8541 3.35085 76.2521 3.59882C75.6592 3.84679 75.1291 4.21335 74.6655 4.68953C74.2037 5.15851 73.8443 5.69578 73.6035 6.30312C73.361 6.91046 73.237 7.55914 73.237 8.24195C73.237 8.91937 73.361 9.56085 73.6035 10.161C73.8443 10.7612 74.2037 11.3056 74.6655 11.7746C75.1291 12.2508 75.652 12.6173 76.2467 12.8653C76.8325 13.1133 77.4668 13.2391 78.1299 13.2391C78.7857 13.2391 79.3985 13.1133 79.9932 12.8653C80.579 12.6173 81.1109 12.2508 81.5799 11.7746C82.0417 11.2984 82.401 10.7612 82.6418 10.1538C82.8916 9.55367 83.0156 8.91937 83.0156 8.24914ZM85.285 8.24914C85.285 9.20148 85.1053 10.0981 84.7532 10.948C84.3956 11.7962 83.8781 12.5544 83.1935 13.2175C82.5107 13.8805 81.7308 14.3909 80.8629 14.743C80.0004 15.0934 79.0894 15.2731 78.1442 15.2731C77.1775 15.2731 76.2593 15.0934 75.3842 14.743C74.5074 14.3837 73.7419 13.8805 73.0645 13.2175C72.3817 12.5544 71.8642 11.8034 71.512 10.9606C71.1616 10.1197 70.9819 9.22304 70.9819 8.25632C70.9819 7.29679 71.1616 6.39296 71.512 5.55203C71.8642 4.7021 72.3817 3.94382 73.0645 3.27539C73.7491 2.61234 74.5218 2.10203 75.3842 1.75703C76.2467 1.41203 77.1632 1.23953 78.1371 1.23953C79.0966 1.23953 80.013 1.41203 80.8755 1.75703C81.738 2.10203 82.5107 2.60515 83.1935 3.27539C83.8781 3.95101 84.3956 4.71648 84.7532 5.5646C85.1053 6.40734 85.285 7.30398 85.285 8.24914ZM53.8343 1.52164H55.987L59.2303 9.96695L62.6534 0.996948L66.0746 9.96695L69.318 1.52164H71.4707L66.3028 15.4384L62.6534 6.2546L59.0021 15.4384L53.8343 1.52164ZM90.5571 33.152V19.7581H92.7295V31.1988H98.5334V33.1448H90.5571V33.152ZM75.3142 26.4784C75.3142 25.8028 75.1902 25.1613 74.9422 24.5468C74.6943 23.9394 74.3421 23.395 73.8785 22.9188C73.4239 22.4498 72.9064 22.0905 72.3134 21.8353C71.7132 21.5802 71.0915 21.4562 70.4357 21.4562C69.7816 21.4562 69.1527 21.5802 68.5525 21.8281C67.9596 22.0779 67.4277 22.4426 66.9659 22.9188C66.5041 23.3878 66.1447 23.9269 65.9021 24.5342C65.6614 25.1416 65.5374 25.7884 65.5374 26.473C65.5374 27.1487 65.6614 27.7901 65.9021 28.3903C66.1447 28.9905 66.5041 29.5367 66.9659 30.0057C67.4277 30.4819 67.9524 30.8466 68.5453 31.0946C69.1329 31.3444 69.7672 31.4684 70.4285 31.4684C71.0843 31.4684 71.6989 31.3444 72.2918 31.0946C72.8794 30.8466 73.4095 30.4819 73.8785 30.0057C74.3421 29.5295 74.6996 28.9905 74.9422 28.3831C75.1902 27.7901 75.3142 27.1559 75.3142 26.4784ZM77.5782 26.4784C77.5782 27.4308 77.3985 28.3292 77.0464 29.1773C76.687 30.0255 76.1695 30.7784 75.4867 31.4468C74.7967 32.1098 74.024 32.6201 73.1543 32.9723C72.2918 33.3245 71.3808 33.5042 70.4357 33.5042C69.4707 33.5042 68.5525 33.3245 67.6757 32.9723C66.8006 32.613 66.0333 32.1098 65.3577 31.4468C64.6749 30.7855 64.1574 30.0326 63.8052 29.1845C63.453 28.3418 63.2733 27.4452 63.2733 26.4784C63.2733 25.5207 63.453 24.6169 63.8052 23.7741C64.1574 22.926 64.6749 22.1659 65.3577 21.4975C66.0405 20.8344 66.8132 20.3241 67.6828 19.9791C68.5453 19.6341 69.4635 19.4544 70.4357 19.4544C71.3952 19.4544 72.3062 19.6269 73.1759 19.9791C74.0384 20.3241 74.811 20.8291 75.4939 21.4975C76.1767 22.1731 76.6942 22.9404 77.0535 23.7885C77.3985 24.6366 77.5782 25.5333 77.5782 26.4784ZM127.113 51.4568V45.3294L122.601 38.0647H124.892L127.698 42.6108C127.9 42.9558 128.087 43.3152 128.259 43.6817C128.417 43.2882 128.597 42.9144 128.823 42.5569L131.702 38.0647H133.874L129.265 45.3294V51.4568H127.113ZM109.787 51.4568V37.54L115.769 43.2954L119.751 47.076V38.0719H121.751V51.9887L115.769 46.2333L111.787 42.4526V51.4568H109.787ZM102.239 42.1346L100.402 46.1991H104.08L102.239 42.1346ZM99.5882 48.0068L98.0357 51.4496H95.7518L102.239 37.5328L108.723 51.4496H106.44L104.887 48.0068H99.5882ZM77.8262 52.003L73.7203 43.4805L71.981 51.4568H69.981L73.1471 37.5059L77.8334 47.2216L82.5178 37.5059L85.6857 51.4568H83.684L81.9446 43.4805L77.8262 52.003ZM49.0043 3.37781V14.9155H46.8319V3.37781H42.8087V1.52164H53.0275V3.37781H49.0043ZM54.0356 33.152V19.7581H62.3982V21.6143H56.208V24.9691H60.7631V26.8791H56.208V31.206H62.3982V33.152H54.0356ZM67.3522 44.7922C67.3522 44.1166 67.2282 43.4733 66.9785 42.8659C66.7305 42.2604 66.3783 41.7141 65.9165 41.238C65.4619 40.769 64.9444 40.4096 64.3496 40.1544C63.7567 39.8993 63.1296 39.7753 62.4737 39.7753C61.8178 39.7753 61.1907 39.8993 60.5906 40.1491C59.9958 40.397 59.4657 40.7618 59.0021 41.238C58.5403 41.7069 58.1882 42.246 57.9402 42.8534C57.6994 43.4607 57.5754 44.1094 57.5754 44.7922C57.5754 45.4678 57.6994 46.1093 57.9402 46.7094C58.181 47.3096 58.5403 47.8559 59.0021 48.3248C59.4657 48.801 59.9904 49.1658 60.5834 49.4155C61.1692 49.6635 61.8035 49.7875 62.4665 49.7875C63.1224 49.7875 63.7369 49.6635 64.3299 49.4155C64.9157 49.1658 65.4475 48.801 65.9165 48.3248C66.3783 47.8487 66.7305 47.3096 66.9785 46.7041C67.2282 46.0967 67.3522 45.4606 67.3522 44.7922ZM69.6145 44.7922C69.6145 45.7445 69.4366 46.6412 69.0844 47.4893C68.725 48.3392 68.2075 49.0975 67.5247 49.7605C66.8347 50.4218 66.0621 50.9321 65.1924 51.2843C64.3299 51.6365 63.4189 51.8162 62.4737 51.8162C61.507 51.8162 60.5906 51.6365 59.7137 51.2843C58.8368 50.9267 58.0714 50.4218 57.3957 49.7605C56.7129 49.0975 56.1954 48.3446 55.8432 47.4965C55.491 46.6555 55.3114 45.7571 55.3114 44.7922C55.3114 43.8326 55.491 42.936 55.8432 42.0879C56.1954 41.238 56.7129 40.4797 57.3957 39.8094C58.0785 39.1482 58.8512 38.6379 59.7209 38.2929C60.5834 37.9479 61.5016 37.7682 62.4737 37.7682C63.4332 37.7682 64.3442 37.9407 65.2121 38.2929C66.0746 38.6379 66.8491 39.141 67.5319 39.8094C68.2147 40.4869 68.7322 41.2523 69.0916 42.1005C69.4366 42.9504 69.6145 43.847 69.6145 44.7922ZM53.766 40.7079C53.4067 40.4797 53.0275 40.2928 52.6484 40.1419C51.9584 39.8795 51.2396 39.7484 50.4814 39.7484C49.0187 39.7484 47.831 40.2173 46.9146 41.1553C45.9964 42.0933 45.5346 43.308 45.5346 44.8066C45.5346 46.2477 45.982 47.4408 46.8732 48.3805C47.7627 49.3185 48.8947 49.7875 50.2532 49.7875C51.0474 49.7875 51.7985 49.6491 52.5172 49.367C52.8694 49.2287 53.2072 49.0562 53.545 48.8495C53.9942 49.5593 54.5728 50.4991 54.5728 50.553C53.9871 50.9734 53.351 51.2915 52.661 51.4981C51.971 51.7066 51.2271 51.809 50.4257 51.809C49.405 51.809 48.4527 51.6437 47.5902 51.3059C46.7205 50.968 45.955 50.4775 45.2992 49.8216C44.6433 49.1801 44.1474 48.4291 43.7952 47.5594C43.443 46.6897 43.2705 45.7643 43.2705 44.785C43.2705 43.8057 43.443 42.8803 43.7952 42.0178C44.1474 41.1553 44.6505 40.397 45.3207 39.7484C45.982 39.0925 46.7492 38.5894 47.6046 38.2516C48.4671 37.9119 49.3907 37.7394 50.3915 37.7394C51.1785 37.7394 51.9242 37.858 52.6412 38.0844C53.3582 38.3198 54.0482 38.6648 54.7184 39.1266C54.7112 39.1823 54.1937 40.0179 53.766 40.7079ZM100.424 33.152V19.7581H108.786V21.6143H102.598V24.9691H107.151V26.8791H102.598V31.206H108.786V33.152H100.424ZM81.4757 21.67V27.4865H84.2159C85.0029 27.4865 85.7199 27.163 86.2374 26.6455C86.7549 26.128 87.0783 25.4093 87.0783 24.6241V24.527C87.0783 23.74 86.7549 23.023 86.2374 22.5055C85.7199 21.988 85.0029 21.6628 84.2159 21.6628H81.4757V21.67ZM79.3104 19.7581H84.2231C85.533 19.7581 86.7279 20.2972 87.5904 21.1597L87.5958 21.1669C88.4583 22.0294 88.9974 23.2225 88.9974 24.5342V24.6294C88.9974 25.9412 88.4583 27.1343 87.5958 27.9968L87.5904 28.004C86.7279 28.8665 85.533 29.4055 84.2231 29.4055H81.4828V33.1592H79.3158V19.7581H79.3104ZM89.9695 39.9766V45.793H92.7097C93.4967 45.793 94.2137 45.4678 94.7312 44.9503C95.2487 44.4328 95.5721 43.7159 95.5721 42.9288V42.8318C95.5721 42.0466 95.2487 41.3278 94.7312 40.8103C94.2137 40.2928 93.4967 39.9766 92.7097 39.9766H89.9695ZM87.8043 38.0647H92.7169C94.0268 38.0647 95.2217 38.6019 96.0843 39.4644L96.0896 39.4716C96.9521 40.3341 97.4912 41.5291 97.4912 42.839V42.936C97.4912 44.2459 96.9521 45.4409 96.0896 46.3034H96.0843C95.2217 47.1659 94.0268 47.7031 92.7169 47.7031H89.9767V51.4568H87.8096V38.0647H87.8043ZM111.719 30.9023C112.423 30.9023 112.989 31.4755 112.989 32.1709C112.989 32.8753 112.416 33.4413 111.719 33.4413C111.022 33.4413 110.448 32.8681 110.448 32.1709C110.443 31.4755 111.014 30.9023 111.719 30.9023ZM43.2705 19.7581H48.1832C49.4949 19.7581 50.6808 20.2972 51.5505 21.1597L51.5577 21.1669C52.4202 22.0294 52.9592 23.2225 52.9592 24.5342V24.6294C52.9592 25.9412 52.4202 27.1343 51.5577 27.9968L51.5505 28.004C50.688 28.8665 49.4949 29.4055 48.1832 29.4055H45.4447V33.1592H43.2777V19.7581H43.2705ZM35.5421 1.52164H0.125732V3.37781H35.5421V1.52164Z" fill="#010101"/>
</svg>
