<svg width="56" height="56" viewBox="0 0 56 56" fill="none" xmlns="http://www.w3.org/2000/svg">
<circle cx="28" cy="28" r="28" fill="#3843D0"/>
<path fill-rule="evenodd" clip-rule="evenodd" d="M6.57556 46.0281C7.42274 40.7103 12.1704 36.2244 18.7544 34.0255C21.1618 36.4601 24.377 37.9864 28.0468 37.9864C31.6928 37.9864 34.8901 36.4798 37.2923 34.0727C43.8419 36.3011 48.5452 40.8006 49.3457 46.1214C44.2098 52.1651 36.5527 55.9997 28.0001 55.9997C19.4035 55.9997 11.7118 52.1256 6.57556 46.0281ZM38.9201 22.5864C38.9201 27.0398 36.8658 30.9455 33.7801 33.1359C32.1156 34.3173 30.151 34.9997 28.0468 34.9997C25.9825 34.9997 24.0526 34.343 22.4085 33.2026C19.27 31.0254 17.1734 27.0854 17.1734 22.5864C17.1734 15.7307 22.0416 10.173 28.0468 10.173C34.0519 10.173 38.9201 15.7307 38.9201 22.5864Z" fill="#FBFEFF"/>
</svg>
